<?xml version="1.0" ?><svg viewBox="0 0 100 100" xmlns="http://www.w3.org/2000/svg"><title/><circle cx="50" cy="50" fill="#e6e6e6" r="49.5"/><rect fill="#10556b" height="18.41667" rx="4.345" ry="4.345" width="8.69" x="45.65997" y="16.43314"/><path d="M66.97794,23.88221c-.0783,1.02253-.11976,1.52924-.19806,2.55178a150.79457,150.79457,0,0,0-33.55516,0c-.07832-1.02253-.12437-1.52924-.20267-2.55178a3.73179,3.73179,0,0,1,3.56048-3.92438c5.08508-.28552,7.89941-.44216,12.418-.479v-.00922c.34545,0,.67247.00461.99951.00461.32243,0,.64944-.00461.9949-.00461v.00922c4.51855.03688,7.33748.19353,12.42257.479A3.73179,3.73179,0,0,1,66.97794,23.88221Z" fill="#4d4d4d"/><path d="M55.17,24.26648a6.69088,6.69088,0,0,1,.92,7.15c-.47-.02-.99005-.03-1.59-.04h-.15v2.32a6.71581,6.71581,0,0,1-8.69.01v-2.33h-.17c-.6.01-1.12.03-1.58.04a6.69088,6.69088,0,0,1,.92-7.15c.72-.03,1.43-.05,2.14-.06q1.515-.03,3.03-.03c1.01,0,2.01.01,3.02.03C53.74,24.21649,54.45,24.23645,55.17,24.26648Z" fill="#2b687f"/><circle cx="49.9959" cy="28.56778" fill="#ffab80" r="5.46844"/><path d="M55.17,24.26648a6.69088,6.69088,0,1,0,1.56,4.3A6.7118,6.7118,0,0,0,55.17,24.26648Zm-5.17,8.51a4.21,4.21,0,1,1,4.2-4.21A4.2166,4.2166,0,0,1,50,32.77649Z" fill="#2b687f"/><ellipse cx="28.5" cy="55.49555" fill="#fff" rx="10.2533" ry="6.10408"/><ellipse cx="71.5" cy="55.49555" fill="#fff" rx="10.2533" ry="6.10408"/><path d="M14.58891,56.84114a1.94612,1.94612,0,0,0,.07122.84979,5.47636,5.47636,0,0,0,2.13156,3.09528,18.887,18.887,0,0,0,10.84294,3.81689A19.763,19.763,0,0,0,35.501,63.37351a14.46213,14.46213,0,0,0,5.07967-2.89118,5.60735,5.60735,0,0,0,1.84673-3.0145,1.18888,1.18888,0,0,0-.01426-.63619c.00475,0,.0095.00475.019.00475a1.24513,1.24513,0,0,0-.08545-.3418c-.04274-.08067-.08548-.1662-.12819-.24687a25.81555,25.81555,0,0,0-3.87858-1.12506,46.94576,46.94576,0,0,0-9.81752-.97323,47.04,47.04,0,0,0-9.827.97323,26.005,26.005,0,0,0-3.85013,1.11556c-.09968.19947-.20413.40357-.30856.60768C14.55093,56.8459,14.57469,56.84114,14.58891,56.84114Z" fill="#4d4d4d"/><path d="M32.97069,38.5733c-.65039-1.24847-1.30554-2.49707-1.95593-3.74561h.00006a3.05645,3.05645,0,0,0-5.27435.508c-.62665,1.201-1.2533,2.39734-1.8847,3.59845Q20.13854,46.048,16.41191,53.16192c-.51746.99225-1.01593,1.98914-1.56665,3.07629a26.0026,26.0026,0,0,1,3.8501-1.1156q4.08746-7.89011,8.21771-15.76117c.09967-.18518.19934-.37506.29907-.56024.39874-.74066.81653-1.49066,1.277-2.34521.25635.40826.41779.641.5459.883.23737.451.47479.9068.71216,1.36255.87347,1.66156,1.73755,3.32788,2.60626,4.98944Q35.34435,49.41632,38.34,55.12262a25.80776,25.80776,0,0,1,3.87854,1.12512Q37.597,47.40347,32.97069,38.5733Z" fill="#ffab80"/><path d="M57.58891,56.84114a1.94612,1.94612,0,0,0,.07122.84979,5.47636,5.47636,0,0,0,2.13156,3.09528,18.887,18.887,0,0,0,10.84294,3.81689A19.763,19.763,0,0,0,78.501,63.37351a14.46213,14.46213,0,0,0,5.07967-2.89118,5.60735,5.60735,0,0,0,1.84673-3.0145,1.18888,1.18888,0,0,0-.01426-.63619c.00475,0,.0095.00475.019.00475a1.24513,1.24513,0,0,0-.08545-.3418c-.04274-.08067-.08548-.1662-.12819-.24687a25.81555,25.81555,0,0,0-3.87858-1.12506,50.052,50.052,0,0,0-19.64455,0,26.005,26.005,0,0,0-3.85013,1.11556c-.09968.19947-.20413.40357-.30856.60768C57.55093,56.8459,57.57469,56.84114,57.58891,56.84114Z" fill="#4d4d4d"/><path d="M75.97069,38.5733c-.65039-1.24847-1.30554-2.49707-1.95593-3.74561h.00006a3.05645,3.05645,0,0,0-5.27435.508c-.62665,1.201-1.2533,2.39734-1.8847,3.59845Q63.13854,46.048,59.41191,53.16192c-.51746.99225-1.01593,1.98914-1.56665,3.07629a26.0026,26.0026,0,0,1,3.8501-1.1156q4.08746-7.89011,8.21771-15.76117c.09967-.18518.19934-.37506.29907-.56024.39874-.74066.81653-1.49066,1.277-2.34521.25635.40826.41779.641.5459.883.23737.451.47479.9068.71216,1.36255.87347,1.66156,1.73755,3.32788,2.60626,4.98944Q78.34435,49.41632,81.34,55.12262a25.80776,25.80776,0,0,1,3.87854,1.12512Q80.597,47.40347,75.97069,38.5733Z" fill="#ffab80"/><path d="M54.35,38.10644v38.91H45.66v-38.9a10.3617,10.3617,0,0,0,8.69-.01Z" fill="#2b687f"/><path d="M79.54,26.42645c-4.25-.55-8.5-.98-12.75-1.32q-4.695-.525-9.41-.75c-.74-.04-1.47-.07-2.21-.09a6.69088,6.69088,0,0,1,.92,7.15c.72.02,1.31995.05,1.89.08,1.29.07,2.44.16,4.59.28,1.37.1,2.74.21,4.1.33h.01l1.61.14,5.12.49,1.69.18c1.19.13,2.37.27,3.56.4a3.48139,3.48139,0,1,0,.88-6.89Z" fill="#2b687f"/><path d="M42.62,24.35644c-3.14.15-6.28.4-9.4.75-4.25995.34-8.52.77-12.75,1.32a3.6045,3.6045,0,0,0-3.25995,3.94,3.642,3.642,0,0,0,4.14,2.95c1.19-.13,2.36-.27,3.54-.4l1.69-.18,5.12-.49,1.61-.14h.01c1.36-.12,2.73-.23,4.1-.33,2.15-.12,3.31-.21,4.6-.28.57-.03,1.17-.06,1.89-.08a6.69088,6.69088,0,0,1,.92-7.15C44.1,24.28644,43.36,24.31646,42.62,24.35644Z" fill="#2b687f"/><path d="M54.35,33.69647v4.41a10.3617,10.3617,0,0,1-8.69.01v-4.41a6.71581,6.71581,0,0,0,8.69-.01Z" fill="#10556b"/><path d="M78.66421,79.56646h-57.31a1.07313,1.07313,0,0,1-.33-2.09c5.48-1.84,14.43-3.15,24.64-3.45v-.01h8.68005v.04c10.2.3,19.17,1.61,24.64,3.45A1.05652,1.05652,0,0,1,78.66421,79.56646Z" fill="#10556b"/></svg>